<?xml version="1.0" encoding="UTF-8" standalone="no"?>
<!-- Created with Inkscape (http://www.inkscape.org/) -->

<svg
   xmlns:dc="http://purl.org/dc/elements/1.1/"
   xmlns:cc="http://creativecommons.org/ns#"
   xmlns:rdf="http://www.w3.org/1999/02/22-rdf-syntax-ns#"
   xmlns:svg="http://www.w3.org/2000/svg"
   xmlns="http://www.w3.org/2000/svg"
   xmlns:sodipodi="http://sodipodi.sourceforge.net/DTD/sodipodi-0.dtd"
   xmlns:inkscape="http://www.inkscape.org/namespaces/inkscape"
   width="12"
   height="12"
   viewBox="0 0 3.175 3.1749999"
   version="1.1"
   id="svg8"
   inkscape:version="0.92.3 (2405546, 2018-03-11)"
   sodipodi:docname="no.svg">
  <defs
     id="defs2" />
  <sodipodi:namedview
     id="base"
     pagecolor="#ffffff"
     bordercolor="#666666"
     borderopacity="1.0"
     inkscape:pageopacity="0.0"
     inkscape:pageshadow="2"
     inkscape:zoom="5.6568543"
     inkscape:cx="54.495214"
     inkscape:cy="8.2751989"
     inkscape:document-units="mm"
     inkscape:current-layer="layer1"
     showgrid="false"
     units="px"
     inkscape:window-width="1366"
     inkscape:window-height="713"
     inkscape:window-x="0"
     inkscape:window-y="27"
     inkscape:window-maximized="1" />
  <metadata
     id="metadata5">
    <rdf:RDF>
      <cc:Work
         rdf:about="">
        <dc:format>image/svg+xml</dc:format>
        <dc:type
           rdf:resource="http://purl.org/dc/dcmitype/StillImage" />
        <dc:title></dc:title>
      </cc:Work>
    </rdf:RDF>
  </metadata>
  <g
     inkscape:label="Layer 1"
     inkscape:groupmode="layer"
     id="layer1"
     transform="translate(0,-293.825)">
    <path
       style="opacity:0.8;fill:#ff0000;fill-opacity:1;stroke:#ff0000;stroke-width:0.17844166;stroke-miterlimit:4;stroke-dasharray:none;stroke-opacity:1"
       id="path838"
       d="m 2.7858442,294.25588 c -0.1000439,0.11505 -0.2119664,0.21009 -0.320613,0.30895 -0.2073416,0.18402 -0.4206117,0.35492 -0.6274959,0.53991 -0.1599553,0.13974 -0.3104557,0.29817 -0.4666738,0.4453 -0.091489,0.088 -0.1812779,0.17808 -0.2665,0.27726 -0.059793,0.0712 -0.10770824,0.15791 -0.16021134,0.23856 -0.023571,0.0366 -0.047409,0.0728 -0.070151,0.11039 0,0 -0.1797357,0.10524 -0.1797357,0.10524 v 0 c 0.023154,-0.0395 0.048741,-0.076 0.073303,-0.11384 0.054844,-0.0803 0.1023596,-0.1698 0.1623676,-0.2434 0.038905,-0.0449 0.076997,-0.0912 0.11796214,-0.13257 0.018531,-0.0187 0.081968,-0.078 0.099269,-0.0949 0.018866,-0.0185 0.037405,-0.0376 0.056107,-0.0563 0.1608637,-0.14875 0.3156575,-0.30956 0.4793743,-0.45263 0.2050287,-0.18378 0.4165044,-0.35338 0.6218064,-0.5366 0.1010195,-0.093 0.2041682,-0.18417 0.2977916,-0.29087 0,0 0.1833991,-0.10444 0.1833991,-0.10444 z"
       inkscape:connector-curvature="0" />
    <path
       style="opacity:0.8;fill:#ff0000;fill-opacity:1;stroke:#ff0000;stroke-width:0.17844166;stroke-miterlimit:4;stroke-dasharray:none;stroke-opacity:1"
       id="path840"
       d="m 0.95068116,294.51175 c 0.10386894,0.17763 0.21693724,0.34409 0.33188944,0.50809 0.1799716,0.24879 0.36197,0.49543 0.5558769,0.72378 0.1354478,0.1622 0.2819899,0.30554 0.4300465,0.44491 0.112769,0.10426 0.2291817,0.20075 0.3475205,0.29251 0.011613,0.008 0.023225,0.0165 0.034838,0.0247 0,0 -0.1597386,0.14305 -0.1597386,0.14305 v 0 c -0.010982,-0.009 -0.021965,-0.0182 -0.032948,-0.0274 -0.1137346,-0.0996 -0.2279213,-0.19834 -0.3403778,-0.30068 -0.1474198,-0.1399 -0.2903839,-0.28894 -0.4236152,-0.45383 -0.1897775,-0.2346 -0.3688912,-0.48484 -0.5521746,-0.7289 -0.1190374,-0.16277 -0.23605214,-0.32931 -0.36113134,-0.48323 0,0 0.1698137,-0.14307 0.1698137,-0.14307 z"
       inkscape:connector-curvature="0" />
  </g>
</svg>
