<?xml version="1.0" encoding="UTF-8" standalone="no"?>
<!-- Created with Inkscape (http://www.inkscape.org/) -->

<svg
   xmlns:dc="http://purl.org/dc/elements/1.1/"
   xmlns:cc="http://creativecommons.org/ns#"
   xmlns:rdf="http://www.w3.org/1999/02/22-rdf-syntax-ns#"
   xmlns:svg="http://www.w3.org/2000/svg"
   xmlns="http://www.w3.org/2000/svg"
   xmlns:sodipodi="http://sodipodi.sourceforge.net/DTD/sodipodi-0.dtd"
   xmlns:inkscape="http://www.inkscape.org/namespaces/inkscape"
   width="12"
   height="12"
   viewBox="0 0 3.1749999 3.1749999"
   version="1.1"
   id="svg8"
   inkscape:version="0.92.3 (2405546, 2018-03-11)"
   sodipodi:docname="ok.svg">
  <defs
     id="defs2" />
  <sodipodi:namedview
     id="base"
     pagecolor="#ffffff"
     bordercolor="#666666"
     borderopacity="1.0"
     inkscape:pageopacity="0.0"
     inkscape:pageshadow="2"
     inkscape:zoom="5.6568543"
     inkscape:cx="21.084419"
     inkscape:cy="8.2751989"
     inkscape:document-units="mm"
     inkscape:current-layer="layer1"
     showgrid="false"
     units="px"
     inkscape:window-width="1366"
     inkscape:window-height="713"
     inkscape:window-x="0"
     inkscape:window-y="27"
     inkscape:window-maximized="1" />
  <metadata
     id="metadata5">
    <rdf:RDF>
      <cc:Work
         rdf:about="">
        <dc:format>image/svg+xml</dc:format>
        <dc:type
           rdf:resource="http://purl.org/dc/dcmitype/StillImage" />
        <dc:title></dc:title>
      </cc:Work>
    </rdf:RDF>
  </metadata>
  <g
     inkscape:label="Layer 1"
     inkscape:groupmode="layer"
     id="layer1"
     transform="translate(0,-293.825)">
    <path
       style="opacity:0.8;fill:#008000;fill-opacity:1;stroke:#008000;stroke-width:0.379;stroke-miterlimit:4;stroke-dasharray:none;stroke-opacity:1"
       id="path815"
       d="m 0.56890869,295.9336 c 0.0335919,0.0652 0.0706774,0.12807 0.11086565,0.18785 0.0330934,0.054 0.069305,0.10448 0.10676383,0.15391 0.0386106,0.0539 0.0820524,0.10172 0.1289467,0.14386 0.0322688,0.0258 0.0275574,0.0168 0.0548841,-0.0104 0.0189591,-0.0191 0.0389671,-0.0363 0.0576802,-0.0557 0.1045636,-0.10749 0.1249692,-0.13592 0.2340765,-0.26257 0.1498543,-0.18917 -0.00562,0.007 0.2598261,-0.31952 0.2046109,-0.25095 0.2026306,-0.25416 0.414022,-0.50432 0.2383457,-0.28206 0.2781753,-0.32586 0.4948101,-0.57355 0.200095,-0.2256 0.4012118,-0.44977 0.5984753,-0.67908 0,0 -0.1046838,0.1772 -0.1046838,0.1772 v 0 c -0.188171,0.21061 -0.3799598,0.41628 -0.5678791,0.62723 -0.1077869,0.12219 -0.2173261,0.24203 -0.3230163,0.36689 -0.2910758,0.3439 -0.5679072,0.70559 -0.8575916,1.05125 -0.048988,0.0582 -0.097206,0.11763 -0.1469104,0.17494 -0.0353273,0.0409 -0.0713337,0.0808 -0.10813718,0.1197 -0.0252176,0.0267 -0.0656172,0.0772 -0.10706449,0.0833 -0.009877,0.001 -0.0298832,-0.0182 -0.0368769,-0.0241 -0.0466042,-0.0451 -0.0900157,-0.0951 -0.13095395,-0.14806 -0.03929,-0.0491 -0.0742966,-0.10146 -0.1068169,-0.15735 -0.0390283,-0.0609 -0.0765814,-0.12304 -0.11627759,-0.18315 0,0 0.1458796,-0.16822 0.1458796,-0.16822 z"
       inkscape:connector-curvature="0" />
  </g>
</svg>
